#N canvas 846 195 1712 1079 10;
#X obj 543 103 unpack f f f f;
#X floatatom 543 125 5 0 0 0 - - -, f 5;
#X obj 543 204 change;
#X floatatom 593 125 5 0 0 0 - - -, f 5;
#X obj 593 204 change;
#X floatatom 643 125 5 0 0 0 - - -, f 5;
#X obj 643 204 change;
#X floatatom 693 125 5 0 0 0 - - -, f 5;
#X obj 693 204 change;
#X obj 639 571 r \$0-selected-track;
#X obj 591 551 r \$0-track-number;
#X floatatom 544 616 5 0 0 0 - - -, f 5;
#X obj 688 471 r \$0-selected-track;
#X obj 640 451 r \$0-track-number;
#X floatatom 593 516 5 0 0 0 - - -, f 5;
#X obj 738 336 r \$0-selected-track;
#X obj 690 316 r \$0-track-number;
#X floatatom 643 380 5 0 0 0 - - -, f 5;
#X obj 788 245 r \$0-selected-track;
#X obj 740 225 r \$0-track-number;
#X floatatom 693 290 5 0 0 0 - - -, f 5;
#X obj 14 12 loadbang;
#X obj 14 34 f \$1;
#X obj 14 56 s \$0-track-number;
#X obj 584 616 s \$0-start;
#X obj 633 516 s \$0-end;
#X obj 643 422 s \$0-speed;
#X obj 733 290 s \$0-volume;
#X obj 977 12 r \$0-start;
#X obj 1057 12 r \$0-end;
#X obj 1123 12 r \$0-speed;
#X obj 940 81 t b;
#X obj 1203 12 r \$0-volume;
#X obj 14 83 r \$0-track-number;
#X floatatom 14 105 5 0 0 0 - - -, f 5;
#X floatatom 14 155 5 0 0 0 - - -, f 5;
#X floatatom 14 223 5 0 0 0 - - -, f 5;
#X obj 592 12 r \$0-recording;
#X obj 592 34 == 0;
#X obj 543 80 spigot;
#X obj 14 132 inlet;
#X obj 543 12 inlet;
#X obj 14 200 inlet;
#X obj 643 399 scale-speed;
#X obj 478 594 loadbang;
#X msg 478 616 0;
#X obj 698 494 loadbang;
#X msg 698 516 1;
#X obj 728 399 loadbang;
#X msg 728 421 1;
#X obj 818 268 loadbang;
#X msg 818 290 1;
#X obj 1293 12 r \$0-selected-track;
#X obj 1443 12 r \$0-recording;
#X obj 977 158 outlet;
#X obj 693 268 pass-if-active;
#X obj 643 358 pass-if-active;
#X obj 593 494 pass-if-active;
#X obj 544 594 pass-if-active;
#X obj 14 292 tgl 15 0 empty empty empty 17 7 0 10 -262144 -1 -1 0
1;
#X obj 14 312 s \$0-tape;
#X obj 977 114 pack f f f f f f f;
#X msg 977 136 \$1 \$2 \$3 \$4 \$5 \$6 \$7;
#X obj 1553 12 r \$0-tape;
#X obj 14 271 inlet;
#X obj 14 242 s \$0-selected-track;
#X obj 14 174 s \$0-recording;
#X floatatom 592 56 5 0 0 0 - - -, f 5;
#X obj 632 34 loadbang;
#X msg 632 56 1;
#X obj 59 132 loadbang;
#X obj 59 200 loadbang;
#X connect 0 0 1 0;
#X connect 0 1 3 0;
#X connect 0 2 5 0;
#X connect 0 3 7 0;
#X connect 1 0 2 0;
#X connect 2 0 58 0;
#X connect 3 0 4 0;
#X connect 4 0 57 0;
#X connect 5 0 6 0;
#X connect 6 0 56 0;
#X connect 7 0 8 0;
#X connect 8 0 55 0;
#X connect 9 0 58 2;
#X connect 10 0 58 1;
#X connect 11 0 24 0;
#X connect 12 0 57 2;
#X connect 13 0 57 1;
#X connect 14 0 25 0;
#X connect 15 0 56 2;
#X connect 16 0 56 1;
#X connect 17 0 43 0;
#X connect 18 0 55 2;
#X connect 19 0 55 1;
#X connect 20 0 27 0;
#X connect 21 0 22 0;
#X connect 22 0 23 0;
#X connect 28 0 31 0;
#X connect 28 0 61 0;
#X connect 29 0 31 0;
#X connect 29 0 61 1;
#X connect 30 0 31 0;
#X connect 30 0 61 2;
#X connect 31 0 61 0;
#X connect 32 0 31 0;
#X connect 32 0 61 3;
#X connect 33 0 34 0;
#X connect 35 0 66 0;
#X connect 36 0 65 0;
#X connect 37 0 38 0;
#X connect 38 0 67 0;
#X connect 39 0 0 0;
#X connect 40 0 35 0;
#X connect 41 0 39 0;
#X connect 42 0 36 0;
#X connect 43 0 26 0;
#X connect 44 0 45 0;
#X connect 45 0 11 0;
#X connect 46 0 47 0;
#X connect 47 0 25 0;
#X connect 48 0 49 0;
#X connect 49 0 26 0;
#X connect 50 0 51 0;
#X connect 51 0 20 0;
#X connect 52 0 31 0;
#X connect 52 0 61 4;
#X connect 53 0 31 0;
#X connect 53 0 61 5;
#X connect 55 0 20 0;
#X connect 56 0 17 0;
#X connect 57 0 14 0;
#X connect 58 0 11 0;
#X connect 59 0 60 0;
#X connect 61 0 62 0;
#X connect 62 0 54 0;
#X connect 63 0 61 6;
#X connect 63 0 31 0;
#X connect 64 0 59 0;
#X connect 67 0 39 1;
#X connect 68 0 69 0;
#X connect 69 0 67 0;
#X connect 70 0 35 0;
#X connect 71 0 36 0;
