#N canvas 0 51 1315 584 10;
#X obj 47 76 ==;
#X floatatom 47 98 5 0 0 0 - - -, f 5;
#X obj 8 117 spigot;
#X obj 90 76 change;
#X obj 90 98 t b;
#X obj 8 7 inlet;
#X obj 47 34 inlet;
#X obj 65 54 inlet;
#X obj 8 139 outlet;
#X connect 0 0 1 0;
#X connect 1 0 2 1;
#X connect 2 0 8 0;
#X connect 3 0 4 0;
#X connect 4 0 0 0;
#X connect 5 0 2 0;
#X connect 6 0 0 0;
#X connect 6 0 3 0;
#X connect 7 0 0 1;
#X connect 7 0 3 0;
