#N canvas 0 51 1037 513 10;
#X obj 22 33 expr -2 + ($f1 * 4);
#X obj 76 135 i;
#X floatatom 76 179 5 0 0 0 - - -, f 5;
#X obj 22 57 moses 0;
#X obj 15 135 i;
#X floatatom 15 179 5 0 0 0 - - -, f 5;
#X obj 76 91 * 40;
#X obj 76 157 / 40;
#X obj 15 157 / 40;
#X obj 15 91 * 40;
#X obj 15 113 - 0.05;
#X obj 76 113 + 0.05;
#X text 129 115 Scale values to 0.005 \, e.g. 0.975x;
#X obj 22 10 inlet;
#X obj 49 212 outlet;
#X connect 0 0 3 0;
#X connect 1 0 7 0;
#X connect 2 0 14 0;
#X connect 3 0 9 0;
#X connect 3 1 6 0;
#X connect 4 0 8 0;
#X connect 5 0 14 0;
#X connect 6 0 11 0;
#X connect 7 0 2 0;
#X connect 8 0 5 0;
#X connect 9 0 10 0;
#X connect 10 0 4 0;
#X connect 11 0 1 0;
#X connect 13 0 0 0;
